<svg width="24" height="24" viewBox="0 0 24 24" fill="none" xmlns="http://www.w3.org/2000/svg">
<path d="M21.78 8.00001C21.78 8.00001 21.58 6.63001 20.98 6.03001C20.23 5.23001 19.38 5.23001 18.98 5.18001C16.2 4.98001 12 5.00001 12 5.00001C12 5.00001 7.82 4.98001 5.03 5.18001C4.63 5.23001 3.79 5.23001 3.03 6.03001C2.43 6.63001 2.23 8.00001 2.23 8.00001C2.23 8.00001 2.03 9.63001 2 11.23V12.93C2.03 14.53 2.23 16.13 2.23 16.13C2.23 16.13 2.43 17.53 3.03 18.13C3.79 18.93 4.78 18.89 5.23 18.98C6.8 19.13 11.83 19.16 12 19.16C12 19.16 16.2 19.16 19 18.96C19.38 18.92 20.23 18.92 21 18.12C21.6 17.52 21.8 16.14 21.8 16.14C21.8 16.14 22 14.54 22 12.92V11.22C21.98 9.62001 21.78 8.00001 21.78 8.00001ZM9.98 15V9.16001L15.33 12.19L9.97 15H9.98Z" fill="#909090"/>
</svg>
