<svg width="24" height="24" viewBox="0 0 24 24" fill="none" xmlns="http://www.w3.org/2000/svg">
<path d="M18.4 5.60001V18.4H5.60001V5.60001H18.4ZM18.4 3.80001H5.60001C5.12262 3.80001 4.66478 3.98965 4.32721 4.32721C3.98965 4.66478 3.80001 5.12262 3.80001 5.60001V18.4C3.78639 18.6447 3.82288 18.8895 3.90722 19.1196C3.99156 19.3496 4.12199 19.5601 4.29051 19.7379C4.45903 19.9158 4.6621 20.0574 4.88727 20.1541C5.11244 20.2507 5.35497 20.3004 5.60001 20.3H18.4C18.6533 20.3145 18.9068 20.2753 19.1439 20.185C19.381 20.0946 19.5963 19.9552 19.7757 19.7757C19.9552 19.5963 20.0946 19.381 20.185 19.1439C20.2753 18.9068 20.3145 18.6533 20.3 18.4V5.60001C20.3004 5.35497 20.2507 5.11244 20.1541 4.88727C20.0574 4.6621 19.9158 4.45903 19.7379 4.29051C19.5601 4.12199 19.3496 3.99156 19.1196 3.90722C18.8895 3.82288 18.6447 3.78639 18.4 3.80001Z" fill="#909090"/>
<path d="M10.2 9V15.5L15.2 12.3L10.2 9.1V9Z" fill="#909090"/>
</svg>
